<svg width="121" height="26" viewBox="0 0 121 26" fill="none" xmlns="http://www.w3.org/2000/svg">
<path d="M84.7069 14.3475H92.5315C92.4536 11.5767 90.5851 10.2482 88.5997 10.2482C86.5755 10.2482 84.9016 11.7665 84.7069 14.3475ZM97.7478 17.4599H84.5512C84.7069 20.2687 86.3419 22.0906 88.8333 22.0906C90.4683 22.0906 91.9086 21.2935 92.259 20.003H97.4753C96.3075 23.8366 93.1543 26.0001 89.0669 26.0001C82.6827 26.0001 79.4906 22.584 79.4906 15.8278C79.4906 10.0585 82.8773 6.33875 88.7554 6.33875C94.6336 6.33875 97.7478 10.0585 97.7478 17.4599Z" fill="black"/>
<path d="M77.7026 25.5066H72.603V14.1957C72.603 11.311 71.7466 10.5139 69.3331 10.5139C66.686 10.5139 65.4013 11.9563 65.4013 14.803V25.5066H60.3407V6.83218H65.1678V9.56502C66.3356 7.47743 68.282 6.33875 71.3573 6.33875C75.0165 6.33875 77.7026 8.50225 77.7026 12.5636V25.5066Z" fill="black"/>
<path d="M53.0095 18.4088L53.0485 16.3592C52.5424 16.8526 51.6471 17.1183 49.7785 17.4599C46.8979 17.9913 45.9636 18.7884 45.9636 20.3826C45.9636 21.7869 46.82 22.4701 48.416 22.4701C51.0242 22.4701 52.9706 20.6103 53.0095 18.4088ZM58.1091 25.5066H53.3988C53.2431 25.0512 53.1263 24.4059 53.0874 23.8366C51.8806 25.1271 49.8564 26.0001 47.2871 26.0001C42.9272 26.0001 40.903 23.9125 40.903 20.876C40.903 15.4862 44.6011 14.8789 49.7007 14.1957C52.231 13.8541 52.9317 13.3606 52.9317 12.0701C52.9317 10.8555 51.686 10.1344 49.7007 10.1344C47.4039 10.1344 46.4696 11.2351 46.2361 12.9052H41.5258C41.6037 9.03364 43.7836 6.33875 49.9342 6.33875C56.007 6.33875 58.1091 8.99568 58.1091 13.7023V25.5066Z" fill="black"/>
<path d="M39.0974 25.5066H34.0367V6.83212H39.0974V25.5066ZM39.0974 4.59271H34.0367V0H39.0974V4.59271Z" fill="black"/>
<path d="M26.4734 25.5066H21.4128V6.83218H26.162V9.07159C27.8359 6.56648 29.7823 6.33875 31.8455 6.33875H32.5072V11.3869C32.0401 11.311 31.573 11.2731 31.1058 11.2731C27.9916 11.2731 26.4734 12.7913 26.4734 15.7898V25.5066Z" fill="black"/>
<path d="M9.84877 21.8628C12.9241 21.8628 14.4812 19.965 14.4812 16.1694C14.4812 12.3738 12.9241 10.5139 9.84877 10.5139C6.77346 10.5139 5.21635 12.3738 5.21635 16.1694C5.21635 19.965 6.77346 21.8628 9.84877 21.8628ZM9.84877 26.0001C3.65923 26.0001 0 21.9767 0 16.1694C0 10.2482 3.77601 6.33875 9.84877 6.33875C15.8437 6.33875 19.5808 10.2103 19.5808 16.1694C19.5808 22.0906 15.8048 26.0001 9.84877 26.0001Z" fill="black"/>
<path d="M117.371 1.70333L118.358 2.51683L119.19 3.483L106.457 15.9407L104.638 14.161L117.371 1.70333Z" fill="black"/>
<path fill-rule="evenodd" clip-rule="evenodd" d="M120.93 4.24306e-07V8.37708H118.358V2.51683H112.368V0L120.93 4.24306e-07Z" fill="black"/>
<path d="M115.552 19.5C116.507 18.5652 117.265 17.4554 117.782 16.2339C118.299 15.0125 118.565 13.7034 118.565 12.3813C118.565 11.0593 118.299 9.75016 117.782 8.52874C117.265 7.30732 116.507 6.1975 115.552 5.26267C114.596 4.32783 113.462 3.58628 112.213 3.08035C110.965 2.57442 109.627 2.31402 108.276 2.31402C106.925 2.31402 105.587 2.57442 104.338 3.08035C103.09 3.58628 101.955 4.32783 101 5.26267L115.552 19.5Z" fill="black"/>
</svg>
