<svg width="18" height="16" viewBox="0 0 18 16" fill="none" xmlns="http://www.w3.org/2000/svg">
<path d="M14.2936 1.39761L15.1097 2.06509L15.7969 2.85785L5.27397 13.0795L3.7707 11.6193L14.2936 1.39761Z" fill="black"/>
<path fill-rule="evenodd" clip-rule="evenodd" d="M17.2356 3.48148e-07V6.8735H15.1097V2.06509H10.1596V0L17.2356 3.48148e-07Z" fill="black"/>
<path d="M12.7903 16C13.58 15.233 14.2063 14.3223 14.6337 13.3201C15.0611 12.318 15.281 11.2438 15.281 10.159C15.281 9.07428 15.0611 8.00013 14.6337 6.99794C14.2063 5.99575 13.58 5.08513 12.7903 4.31809C12.0007 3.55104 11.0632 2.94259 10.0315 2.52746C8.99977 2.11234 7.89397 1.89868 6.77724 1.89868C5.66051 1.89868 4.55471 2.11234 3.52298 2.52747C2.49126 2.94259 1.55381 3.55104 0.76416 4.31809L12.7903 16Z" fill="black"/>
</svg>
