<svg width="21" height="20" viewBox="0 0 21 20" fill="none" xmlns="http://www.w3.org/2000/svg">
<path d="M17.1171 1.74701L18.1372 2.58136L18.9962 3.57231L5.84258 16.3494L3.9635 14.5241L17.1171 1.74701Z" fill="white"/>
<path fill-rule="evenodd" clip-rule="evenodd" d="M20.7947 4.35185e-07V8.59188H18.1372V2.58136H11.9496V0L20.7947 4.35185e-07Z" fill="white"/>
<path d="M15.238 20C16.2251 19.0412 17.0081 17.9029 17.5422 16.6502C18.0764 15.3974 18.3514 14.0548 18.3514 12.6988C18.3514 11.3428 18.0764 10.0002 17.5422 8.74742C17.0081 7.49468 16.2251 6.35641 15.238 5.39761C14.251 4.4388 13.0791 3.67823 11.7895 3.15933C10.4998 2.64043 9.11758 2.37335 7.72167 2.37335C6.32575 2.37335 4.94351 2.64043 3.65385 3.15933C2.36419 3.67823 1.19238 4.4388 0.205322 5.39761L15.238 20Z" fill="white"/>
</svg>
